<mxfile host="app.diagrams.net" modified="2023-03-02T06:43:12.438Z" agent="5.0 (Windows NT 10.0; Win64; x64) AppleWebKit/537.36 (KHTML, like Gecko) Chrome/110.0.0.0 Safari/537.36" etag="8j3wDE5XmqRpnrUvz-3B" version="20.8.23" type="github">
  <diagram id="R2lEEEUBdFMjLlhIrx00" name="Page-1">
    <mxGraphModel dx="1050" dy="581" grid="1" gridSize="10" guides="1" tooltips="1" connect="1" arrows="1" fold="1" page="1" pageScale="1" pageWidth="850" pageHeight="1100" math="0" shadow="0" extFonts="Permanent Marker^https://fonts.googleapis.com/css?family=Permanent+Marker">
      <root>
        <mxCell id="0" />
        <mxCell id="1" parent="0" />
        <mxCell id="4jKd7ef3vC1ml2yuR7vD-1" value="学生" style="rounded=0;whiteSpace=wrap;html=1;" vertex="1" parent="1">
          <mxGeometry x="220" y="570" width="120" height="60" as="geometry" />
        </mxCell>
        <mxCell id="4jKd7ef3vC1ml2yuR7vD-2" value="姓名" style="ellipse;whiteSpace=wrap;html=1;" vertex="1" parent="1">
          <mxGeometry x="130" y="430" width="100" height="60" as="geometry" />
        </mxCell>
        <mxCell id="4jKd7ef3vC1ml2yuR7vD-3" value="课程号" style="ellipse;whiteSpace=wrap;html=1;" vertex="1" parent="1">
          <mxGeometry x="590" y="430" width="100" height="60" as="geometry" />
        </mxCell>
        <mxCell id="4jKd7ef3vC1ml2yuR7vD-4" value="出生日期" style="ellipse;whiteSpace=wrap;html=1;" vertex="1" parent="1">
          <mxGeometry x="60" y="640" width="100" height="60" as="geometry" />
        </mxCell>
        <mxCell id="4jKd7ef3vC1ml2yuR7vD-5" value="政治面貌" style="ellipse;whiteSpace=wrap;html=1;" vertex="1" parent="1">
          <mxGeometry x="90" y="720" width="100" height="60" as="geometry" />
        </mxCell>
        <mxCell id="4jKd7ef3vC1ml2yuR7vD-6" value="课程名" style="ellipse;whiteSpace=wrap;html=1;" vertex="1" parent="1">
          <mxGeometry x="680" y="490" width="100" height="60" as="geometry" />
        </mxCell>
        <mxCell id="4jKd7ef3vC1ml2yuR7vD-7" value="学分" style="ellipse;whiteSpace=wrap;html=1;" vertex="1" parent="1">
          <mxGeometry x="690" y="565" width="100" height="60" as="geometry" />
        </mxCell>
        <mxCell id="4jKd7ef3vC1ml2yuR7vD-8" value="课时" style="ellipse;whiteSpace=wrap;html=1;" vertex="1" parent="1">
          <mxGeometry x="690" y="640" width="100" height="60" as="geometry" />
        </mxCell>
        <mxCell id="4jKd7ef3vC1ml2yuR7vD-9" value="学号" style="ellipse;whiteSpace=wrap;html=1;" vertex="1" parent="1">
          <mxGeometry x="40" y="570" width="100" height="60" as="geometry" />
        </mxCell>
        <mxCell id="4jKd7ef3vC1ml2yuR7vD-10" value="" style="edgeStyle=orthogonalEdgeStyle;rounded=0;orthogonalLoop=1;jettySize=auto;html=1;strokeColor=none;" edge="1" parent="1" source="4jKd7ef3vC1ml2yuR7vD-11" target="4jKd7ef3vC1ml2yuR7vD-1">
          <mxGeometry relative="1" as="geometry" />
        </mxCell>
        <mxCell id="4jKd7ef3vC1ml2yuR7vD-11" value="性别" style="ellipse;whiteSpace=wrap;html=1;" vertex="1" parent="1">
          <mxGeometry x="50" y="490" width="100" height="60" as="geometry" />
        </mxCell>
        <mxCell id="4jKd7ef3vC1ml2yuR7vD-12" value="" style="endArrow=none;html=1;rounded=0;entryX=0;entryY=0;entryDx=0;entryDy=0;exitX=0.772;exitY=0.917;exitDx=0;exitDy=0;exitPerimeter=0;" edge="1" parent="1" source="4jKd7ef3vC1ml2yuR7vD-2" target="4jKd7ef3vC1ml2yuR7vD-1">
          <mxGeometry width="50" height="50" relative="1" as="geometry">
            <mxPoint x="370" y="540" as="sourcePoint" />
            <mxPoint x="420" y="490" as="targetPoint" />
          </mxGeometry>
        </mxCell>
        <mxCell id="4jKd7ef3vC1ml2yuR7vD-13" value="" style="endArrow=none;html=1;rounded=0;strokeColor=default;exitX=1;exitY=0.5;exitDx=0;exitDy=0;entryX=0;entryY=0.25;entryDx=0;entryDy=0;" edge="1" parent="1" source="4jKd7ef3vC1ml2yuR7vD-11" target="4jKd7ef3vC1ml2yuR7vD-1">
          <mxGeometry width="50" height="50" relative="1" as="geometry">
            <mxPoint x="150" y="730" as="sourcePoint" />
            <mxPoint x="200" y="680" as="targetPoint" />
          </mxGeometry>
        </mxCell>
        <mxCell id="4jKd7ef3vC1ml2yuR7vD-14" value="" style="endArrow=none;html=1;rounded=0;strokeColor=default;exitX=1;exitY=0.5;exitDx=0;exitDy=0;entryX=0;entryY=0.5;entryDx=0;entryDy=0;" edge="1" parent="1" source="4jKd7ef3vC1ml2yuR7vD-9" target="4jKd7ef3vC1ml2yuR7vD-1">
          <mxGeometry width="50" height="50" relative="1" as="geometry">
            <mxPoint x="180" y="710" as="sourcePoint" />
            <mxPoint x="230" y="660" as="targetPoint" />
          </mxGeometry>
        </mxCell>
        <mxCell id="4jKd7ef3vC1ml2yuR7vD-15" value="" style="endArrow=none;html=1;rounded=0;strokeColor=default;exitX=1;exitY=0.5;exitDx=0;exitDy=0;entryX=0;entryY=1;entryDx=0;entryDy=0;" edge="1" parent="1" source="4jKd7ef3vC1ml2yuR7vD-4" target="4jKd7ef3vC1ml2yuR7vD-1">
          <mxGeometry width="50" height="50" relative="1" as="geometry">
            <mxPoint x="250" y="750" as="sourcePoint" />
            <mxPoint x="300" y="700" as="targetPoint" />
          </mxGeometry>
        </mxCell>
        <mxCell id="4jKd7ef3vC1ml2yuR7vD-16" value="" style="endArrow=none;html=1;rounded=0;strokeColor=default;exitX=0.7;exitY=0.167;exitDx=0;exitDy=0;exitPerimeter=0;entryX=0.1;entryY=1.037;entryDx=0;entryDy=0;entryPerimeter=0;" edge="1" parent="1" source="4jKd7ef3vC1ml2yuR7vD-5" target="4jKd7ef3vC1ml2yuR7vD-1">
          <mxGeometry width="50" height="50" relative="1" as="geometry">
            <mxPoint x="210" y="770" as="sourcePoint" />
            <mxPoint x="260" y="720" as="targetPoint" />
          </mxGeometry>
        </mxCell>
        <mxCell id="4jKd7ef3vC1ml2yuR7vD-17" value="课程" style="rounded=0;whiteSpace=wrap;html=1;" vertex="1" parent="1">
          <mxGeometry x="510" y="570" width="120" height="60" as="geometry" />
        </mxCell>
        <mxCell id="4jKd7ef3vC1ml2yuR7vD-18" value="开设学期" style="ellipse;whiteSpace=wrap;html=1;" vertex="1" parent="1">
          <mxGeometry x="610" y="710" width="100" height="60" as="geometry" />
        </mxCell>
        <mxCell id="4jKd7ef3vC1ml2yuR7vD-19" value="" style="endArrow=none;html=1;rounded=0;strokeColor=default;exitX=0.75;exitY=0;exitDx=0;exitDy=0;entryX=0;entryY=1;entryDx=0;entryDy=0;" edge="1" parent="1" source="4jKd7ef3vC1ml2yuR7vD-17" target="4jKd7ef3vC1ml2yuR7vD-3">
          <mxGeometry width="50" height="50" relative="1" as="geometry">
            <mxPoint x="620" y="570" as="sourcePoint" />
            <mxPoint x="670" y="520" as="targetPoint" />
          </mxGeometry>
        </mxCell>
        <mxCell id="4jKd7ef3vC1ml2yuR7vD-20" value="" style="endArrow=none;html=1;rounded=0;strokeColor=default;exitX=1;exitY=0.25;exitDx=0;exitDy=0;entryX=0;entryY=0.5;entryDx=0;entryDy=0;" edge="1" parent="1" source="4jKd7ef3vC1ml2yuR7vD-17" target="4jKd7ef3vC1ml2yuR7vD-6">
          <mxGeometry width="50" height="50" relative="1" as="geometry">
            <mxPoint x="600" y="700" as="sourcePoint" />
            <mxPoint x="650" y="650" as="targetPoint" />
          </mxGeometry>
        </mxCell>
        <mxCell id="4jKd7ef3vC1ml2yuR7vD-21" value="" style="endArrow=none;html=1;rounded=0;strokeColor=default;exitX=1;exitY=0.5;exitDx=0;exitDy=0;entryX=0;entryY=0.5;entryDx=0;entryDy=0;" edge="1" parent="1" source="4jKd7ef3vC1ml2yuR7vD-17" target="4jKd7ef3vC1ml2yuR7vD-7">
          <mxGeometry width="50" height="50" relative="1" as="geometry">
            <mxPoint x="650" y="690" as="sourcePoint" />
            <mxPoint x="700" y="640" as="targetPoint" />
          </mxGeometry>
        </mxCell>
        <mxCell id="4jKd7ef3vC1ml2yuR7vD-22" value="" style="endArrow=none;html=1;rounded=0;strokeColor=default;entryX=0;entryY=0.5;entryDx=0;entryDy=0;exitX=0.917;exitY=1.01;exitDx=0;exitDy=0;exitPerimeter=0;" edge="1" parent="1" source="4jKd7ef3vC1ml2yuR7vD-17" target="4jKd7ef3vC1ml2yuR7vD-8">
          <mxGeometry width="50" height="50" relative="1" as="geometry">
            <mxPoint x="600" y="750" as="sourcePoint" />
            <mxPoint x="650" y="700" as="targetPoint" />
          </mxGeometry>
        </mxCell>
        <mxCell id="4jKd7ef3vC1ml2yuR7vD-23" value="" style="endArrow=none;html=1;rounded=0;strokeColor=default;entryX=0.5;entryY=0;entryDx=0;entryDy=0;exitX=0.5;exitY=1;exitDx=0;exitDy=0;" edge="1" parent="1" source="4jKd7ef3vC1ml2yuR7vD-17" target="4jKd7ef3vC1ml2yuR7vD-18">
          <mxGeometry width="50" height="50" relative="1" as="geometry">
            <mxPoint x="460" y="770" as="sourcePoint" />
            <mxPoint x="510" y="720" as="targetPoint" />
          </mxGeometry>
        </mxCell>
        <mxCell id="4jKd7ef3vC1ml2yuR7vD-24" value="选课" style="rhombus;whiteSpace=wrap;html=1;" vertex="1" parent="1">
          <mxGeometry x="380" y="565" width="90" height="70" as="geometry" />
        </mxCell>
        <mxCell id="4jKd7ef3vC1ml2yuR7vD-25" value="" style="endArrow=none;html=1;rounded=0;strokeColor=default;exitX=1;exitY=0.5;exitDx=0;exitDy=0;entryX=0;entryY=0.5;entryDx=0;entryDy=0;" edge="1" parent="1" source="4jKd7ef3vC1ml2yuR7vD-1" target="4jKd7ef3vC1ml2yuR7vD-24">
          <mxGeometry width="50" height="50" relative="1" as="geometry">
            <mxPoint x="360" y="710" as="sourcePoint" />
            <mxPoint x="410" y="660" as="targetPoint" />
          </mxGeometry>
        </mxCell>
        <mxCell id="4jKd7ef3vC1ml2yuR7vD-26" value="n" style="text;html=1;align=center;verticalAlign=middle;resizable=0;points=[];autosize=1;strokeColor=none;fillColor=none;" vertex="1" parent="1">
          <mxGeometry x="345" y="565" width="30" height="30" as="geometry" />
        </mxCell>
        <mxCell id="4jKd7ef3vC1ml2yuR7vD-27" value="" style="endArrow=none;html=1;rounded=0;strokeColor=default;exitX=1;exitY=0.5;exitDx=0;exitDy=0;entryX=0;entryY=0.5;entryDx=0;entryDy=0;" edge="1" parent="1" source="4jKd7ef3vC1ml2yuR7vD-24" target="4jKd7ef3vC1ml2yuR7vD-17">
          <mxGeometry width="50" height="50" relative="1" as="geometry">
            <mxPoint x="470" y="730" as="sourcePoint" />
            <mxPoint x="520" y="680" as="targetPoint" />
          </mxGeometry>
        </mxCell>
        <mxCell id="4jKd7ef3vC1ml2yuR7vD-28" value="m" style="text;html=1;align=center;verticalAlign=middle;resizable=0;points=[];autosize=1;strokeColor=none;fillColor=none;" vertex="1" parent="1">
          <mxGeometry x="470" y="570" width="30" height="30" as="geometry" />
        </mxCell>
        <mxCell id="4jKd7ef3vC1ml2yuR7vD-29" value="成绩" style="ellipse;whiteSpace=wrap;html=1;" vertex="1" parent="1">
          <mxGeometry x="370" y="480" width="100" height="60" as="geometry" />
        </mxCell>
        <mxCell id="4jKd7ef3vC1ml2yuR7vD-30" value="" style="endArrow=none;html=1;rounded=0;strokeColor=default;exitX=0.5;exitY=0;exitDx=0;exitDy=0;entryX=0.5;entryY=1;entryDx=0;entryDy=0;" edge="1" parent="1" source="4jKd7ef3vC1ml2yuR7vD-24" target="4jKd7ef3vC1ml2yuR7vD-29">
          <mxGeometry width="50" height="50" relative="1" as="geometry">
            <mxPoint x="390" y="760" as="sourcePoint" />
            <mxPoint x="440" y="710" as="targetPoint" />
          </mxGeometry>
        </mxCell>
        <mxCell id="4jKd7ef3vC1ml2yuR7vD-31" value="老师" style="rounded=0;whiteSpace=wrap;html=1;" vertex="1" parent="1">
          <mxGeometry x="360" y="780" width="120" height="60" as="geometry" />
        </mxCell>
        <mxCell id="4jKd7ef3vC1ml2yuR7vD-32" value="政治面貌" style="ellipse;whiteSpace=wrap;html=1;" vertex="1" parent="1">
          <mxGeometry x="520" y="790" width="100" height="60" as="geometry" />
        </mxCell>
        <mxCell id="4jKd7ef3vC1ml2yuR7vD-33" value="性别" style="ellipse;whiteSpace=wrap;html=1;" vertex="1" parent="1">
          <mxGeometry x="500" y="860" width="100" height="60" as="geometry" />
        </mxCell>
        <mxCell id="4jKd7ef3vC1ml2yuR7vD-34" value="工号" style="ellipse;whiteSpace=wrap;html=1;" vertex="1" parent="1">
          <mxGeometry x="370" y="890" width="100" height="60" as="geometry" />
        </mxCell>
        <mxCell id="4jKd7ef3vC1ml2yuR7vD-35" value="姓名" style="ellipse;whiteSpace=wrap;html=1;" vertex="1" parent="1">
          <mxGeometry x="260" y="860" width="100" height="60" as="geometry" />
        </mxCell>
        <mxCell id="4jKd7ef3vC1ml2yuR7vD-36" value="出生日期" style="ellipse;whiteSpace=wrap;html=1;" vertex="1" parent="1">
          <mxGeometry x="190" y="790" width="100" height="60" as="geometry" />
        </mxCell>
        <mxCell id="4jKd7ef3vC1ml2yuR7vD-37" value="" style="endArrow=none;html=1;rounded=0;strokeColor=default;exitX=1;exitY=0.5;exitDx=0;exitDy=0;entryX=0;entryY=0.5;entryDx=0;entryDy=0;" edge="1" parent="1" source="4jKd7ef3vC1ml2yuR7vD-36" target="4jKd7ef3vC1ml2yuR7vD-31">
          <mxGeometry width="50" height="50" relative="1" as="geometry">
            <mxPoint x="130" y="930" as="sourcePoint" />
            <mxPoint x="180" y="880" as="targetPoint" />
          </mxGeometry>
        </mxCell>
        <mxCell id="4jKd7ef3vC1ml2yuR7vD-38" value="" style="endArrow=none;html=1;rounded=0;strokeColor=default;exitX=1;exitY=1;exitDx=0;exitDy=0;entryX=0;entryY=0;entryDx=0;entryDy=0;" edge="1" parent="1" source="4jKd7ef3vC1ml2yuR7vD-31" target="4jKd7ef3vC1ml2yuR7vD-33">
          <mxGeometry width="50" height="50" relative="1" as="geometry">
            <mxPoint x="300" y="830" as="sourcePoint" />
            <mxPoint x="370" y="820" as="targetPoint" />
          </mxGeometry>
        </mxCell>
        <mxCell id="4jKd7ef3vC1ml2yuR7vD-39" value="" style="endArrow=none;html=1;rounded=0;strokeColor=default;exitX=0.5;exitY=0;exitDx=0;exitDy=0;entryX=0.5;entryY=1;entryDx=0;entryDy=0;" edge="1" parent="1" source="4jKd7ef3vC1ml2yuR7vD-34" target="4jKd7ef3vC1ml2yuR7vD-31">
          <mxGeometry width="50" height="50" relative="1" as="geometry">
            <mxPoint x="400" y="910" as="sourcePoint" />
            <mxPoint x="470" y="900" as="targetPoint" />
          </mxGeometry>
        </mxCell>
        <mxCell id="4jKd7ef3vC1ml2yuR7vD-40" value="" style="endArrow=none;html=1;rounded=0;strokeColor=default;exitX=1;exitY=0.5;exitDx=0;exitDy=0;entryX=0;entryY=1;entryDx=0;entryDy=0;" edge="1" parent="1" target="4jKd7ef3vC1ml2yuR7vD-31">
          <mxGeometry width="50" height="50" relative="1" as="geometry">
            <mxPoint x="325" y="860" as="sourcePoint" />
            <mxPoint x="395" y="850" as="targetPoint" />
          </mxGeometry>
        </mxCell>
        <mxCell id="4jKd7ef3vC1ml2yuR7vD-41" value="" style="endArrow=none;html=1;rounded=0;strokeColor=default;exitX=0;exitY=0.5;exitDx=0;exitDy=0;entryX=1;entryY=0.5;entryDx=0;entryDy=0;" edge="1" parent="1" source="4jKd7ef3vC1ml2yuR7vD-32" target="4jKd7ef3vC1ml2yuR7vD-31">
          <mxGeometry width="50" height="50" relative="1" as="geometry">
            <mxPoint x="330" y="860" as="sourcePoint" />
            <mxPoint x="400" y="850" as="targetPoint" />
          </mxGeometry>
        </mxCell>
        <mxCell id="4jKd7ef3vC1ml2yuR7vD-42" value="" style="endArrow=none;html=1;rounded=0;strokeColor=default;entryX=0;entryY=0.5;entryDx=0;entryDy=0;" edge="1" parent="1" target="4jKd7ef3vC1ml2yuR7vD-44">
          <mxGeometry width="50" height="50" relative="1" as="geometry">
            <mxPoint x="430" y="780" as="sourcePoint" />
            <mxPoint x="475" y="730" as="targetPoint" />
          </mxGeometry>
        </mxCell>
        <mxCell id="4jKd7ef3vC1ml2yuR7vD-43" value="" style="endArrow=none;html=1;rounded=0;strokeColor=default;entryX=0.5;entryY=1;entryDx=0;entryDy=0;exitX=1;exitY=0.5;exitDx=0;exitDy=0;" edge="1" parent="1" source="4jKd7ef3vC1ml2yuR7vD-44" target="4jKd7ef3vC1ml2yuR7vD-17">
          <mxGeometry width="50" height="50" relative="1" as="geometry">
            <mxPoint x="475" y="660" as="sourcePoint" />
            <mxPoint x="480" y="740" as="targetPoint" />
          </mxGeometry>
        </mxCell>
        <mxCell id="4jKd7ef3vC1ml2yuR7vD-44" value="教授" style="rhombus;whiteSpace=wrap;html=1;rotation=-45;" vertex="1" parent="1">
          <mxGeometry x="460" y="670" width="90" height="70" as="geometry" />
        </mxCell>
        <mxCell id="4jKd7ef3vC1ml2yuR7vD-45" value="1" style="text;html=1;align=center;verticalAlign=middle;resizable=0;points=[];autosize=1;strokeColor=none;fillColor=none;" vertex="1" parent="1">
          <mxGeometry x="425" y="725" width="30" height="30" as="geometry" />
        </mxCell>
        <mxCell id="4jKd7ef3vC1ml2yuR7vD-46" value="n" style="text;html=1;align=center;verticalAlign=middle;resizable=0;points=[];autosize=1;strokeColor=none;fillColor=none;" vertex="1" parent="1">
          <mxGeometry x="525" y="635" width="30" height="30" as="geometry" />
        </mxCell>
      </root>
    </mxGraphModel>
  </diagram>
</mxfile>
